<svg id="visual" viewBox="0 0 960 100" width="960" height="100" xmlns="http://www.w3.org/2000/svg" xmlns:xlink="http://www.w3.org/1999/xlink" version="1.1"><rect x="0" y="0" width="960" height="100" fill="#001220"></rect><path d="M0 73L22.8 73.2C45.7 73.3 91.3 73.7 137 67.3C182.7 61 228.3 48 274 43.8C319.7 39.7 365.3 44.3 411.2 50.8C457 57.3 503 65.7 548.8 62.3C594.7 59 640.3 44 686 41.8C731.7 39.7 777.3 50.3 823 54.7C868.7 59 914.3 57 937.2 56L960 55L960 0L937.2 0C914.3 0 868.7 0 823 0C777.3 0 731.7 0 686 0C640.3 0 594.7 0 548.8 0C503 0 457 0 411.2 0C365.3 0 319.7 0 274 0C228.3 0 182.7 0 137 0C91.3 0 45.7 0 22.8 0L0 0Z" fill="#006b52"></path><path d="M0 25L22.8 28C45.7 31 91.3 37 137 39.5C182.7 42 228.3 41 274 43.3C319.7 45.7 365.3 51.3 411.2 53.3C457 55.3 503 53.7 548.8 48.2C594.7 42.7 640.3 33.3 686 27.5C731.7 21.7 777.3 19.3 823 25C868.7 30.7 914.3 44.3 937.2 51.2L960 58L960 0L937.2 0C914.3 0 868.7 0 823 0C777.3 0 731.7 0 686 0C640.3 0 594.7 0 548.8 0C503 0 457 0 411.2 0C365.3 0 319.7 0 274 0C228.3 0 182.7 0 137 0C91.3 0 45.7 0 22.8 0L0 0Z" fill="#008364"></path><path d="M0 26L22.8 27.8C45.7 29.7 91.3 33.3 137 34.3C182.7 35.3 228.3 33.7 274 27.8C319.7 22 365.3 12 411.2 11.3C457 10.7 503 19.3 548.8 21.7C594.7 24 640.3 20 686 21.5C731.7 23 777.3 30 823 29.7C868.7 29.3 914.3 21.7 937.2 17.8L960 14L960 0L937.2 0C914.3 0 868.7 0 823 0C777.3 0 731.7 0 686 0C640.3 0 594.7 0 548.8 0C503 0 457 0 411.2 0C365.3 0 319.7 0 274 0C228.3 0 182.7 0 137 0C91.3 0 45.7 0 22.8 0L0 0Z" fill="#009c77"></path></svg>