<svg id="visual" viewBox="0 0 960 100" width="960" height="100" xmlns="http://www.w3.org/2000/svg" xmlns:xlink="http://www.w3.org/1999/xlink" version="1.1"><rect x="0" y="0" width="960" height="100" fill="#009c77"></rect><path d="M0 19L20 24C40 29 80 39 120 45.3C160 51.7 200 54.3 240 51.2C280 48 320 39 360 31.8C400 24.7 440 19.3 480 16.2C520 13 560 12 600 17.5C640 23 680 35 720 44C760 53 800 59 840 61.5C880 64 920 63 940 62.5L960 62L960 0L940 0C920 0 880 0 840 0C800 0 760 0 720 0C680 0 640 0 600 0C560 0 520 0 480 0C440 0 400 0 360 0C320 0 280 0 240 0C200 0 160 0 120 0C80 0 40 0 20 0L0 0Z" fill="#f6f6f6" stroke-linecap="round" stroke-linejoin="miter"></path></svg>