<svg width="380" height="380" viewBox="0 0 380 380" fill="none" xmlns="http://www.w3.org/2000/svg">
<circle cx="190" cy="190" r="80" fill="#018669"/>
<path fill-rule="evenodd" clip-rule="evenodd" d="M156.667 185.833C158.968 185.833 160.833 187.698 160.833 190V227.499H219.166V190C219.166 187.698 221.032 185.833 223.333 185.833C225.634 185.833 227.5 187.698 227.5 190V231.666C227.5 233.967 225.634 235.833 223.333 235.833H156.667C154.365 235.833 152.5 233.967 152.5 231.666V190C152.5 187.698 154.365 185.833 156.667 185.833Z" fill="white"/>
<path fill-rule="evenodd" clip-rule="evenodd" d="M144.167 169.166C144.167 166.865 146.032 165 148.333 165H231.666C233.967 165 235.833 166.865 235.833 169.166V190C235.833 192.301 233.967 194.166 231.666 194.166H148.333C146.032 194.166 144.167 192.301 144.167 190V169.166ZM152.5 173.333V185.833H227.499V173.333H152.5Z" fill="white"/>
<path fill-rule="evenodd" clip-rule="evenodd" d="M190 165C192.301 165 194.166 166.865 194.166 169.166V231.666C194.166 233.967 192.301 235.833 190 235.833C187.698 235.833 185.833 233.967 185.833 231.666V169.166C185.833 166.865 187.698 165 190 165Z" fill="white"/>
<path fill-rule="evenodd" clip-rule="evenodd" d="M171.25 152.5C169.592 152.5 168.002 153.159 166.83 154.331C165.658 155.503 165 157.092 165 158.75C165 160.408 165.658 161.997 166.83 163.169C168.002 164.341 169.592 165 171.25 165H184.391C183.883 163.669 183.239 162.206 182.443 160.758C179.822 155.993 176.224 152.5 171.25 152.5ZM190 169.167C194.085 168.349 194.085 168.348 194.085 168.347L194.084 168.343L194.082 168.335L194.078 168.313L194.064 168.245C194.052 168.191 194.036 168.117 194.016 168.024C193.975 167.84 193.915 167.582 193.834 167.261C193.674 166.62 193.432 165.723 193.093 164.654C192.421 162.53 191.347 159.656 189.744 156.742C186.636 151.09 180.858 144.167 171.25 144.167C167.382 144.167 163.673 145.703 160.938 148.438C158.203 151.173 156.667 154.882 156.667 158.75C156.667 162.618 158.203 166.327 160.938 169.062C163.673 171.797 167.382 173.333 171.25 173.333H190C191.248 173.333 192.43 172.774 193.222 171.808C194.013 170.843 194.33 169.574 194.085 168.349L190 169.167Z" fill="white"/>
<path fill-rule="evenodd" clip-rule="evenodd" d="M190.255 156.742C193.363 151.09 199.141 144.167 208.75 144.167C212.617 144.167 216.327 145.703 219.061 148.438C221.796 151.173 223.333 154.882 223.333 158.75C223.333 162.618 221.796 166.327 219.061 169.062C216.327 171.797 212.617 173.333 208.75 173.333H190C188.751 173.333 187.569 172.774 186.777 171.808C185.986 170.843 185.669 169.574 185.914 168.349L190 169.167C185.914 168.349 185.914 168.348 185.915 168.347L185.915 168.343L185.917 168.335L185.921 168.313L185.935 168.245C185.947 168.191 185.963 168.117 185.984 168.024C186.025 167.84 186.085 167.582 186.165 167.261C186.325 166.62 186.568 165.723 186.906 164.654C187.579 162.53 188.653 159.656 190.255 156.742ZM195.608 165H208.75C210.407 165 211.997 164.341 213.169 163.169C214.341 161.997 215 160.408 215 158.75C215 157.092 214.341 155.503 213.169 154.331C211.997 153.159 210.407 152.5 208.75 152.5C203.775 152.5 200.177 155.993 197.557 160.758C196.76 162.206 196.117 163.669 195.608 165ZM194.084 169.991C194.084 169.992 194.084 169.992 194.084 169.99L194.084 169.991Z" fill="white"/>
<g clip-path="url(#clip0_14_2278)">
<path d="M189.996 79.9927C212.086 79.9926 229.993 62.0856 229.993 39.9963C229.993 17.9069 212.086 -7.57883e-05 189.996 -4.88237e-05C167.907 -2.18591e-05 150 17.907 150 39.9964C150 62.0857 167.907 79.9927 189.996 79.9927Z" fill="#FFDA96"/>
<path d="M190.018 43.6562C186.737 43.6562 183.53 42.6833 180.802 40.8604C178.073 39.0376 175.947 36.4467 174.692 33.4154C173.436 30.3841 173.107 27.0485 173.747 23.8305C174.388 20.6125 175.968 17.6565 178.288 15.3365C180.608 13.0164 183.564 11.4364 186.782 10.7963C190 10.1562 193.335 10.4847 196.367 11.7403C199.398 12.9959 201.989 15.1222 203.812 17.8503C205.634 20.5784 206.607 23.7858 206.607 27.0669C206.602 31.4649 204.852 35.6811 201.742 38.7909C198.632 41.9008 194.416 43.6505 190.018 43.6562V43.6562Z" fill="#4E84F6"/>
<path d="M190.018 27.0742L173.407 27.0742L173.407 33.8264C173.392 35.7636 172.909 37.6685 172.001 39.3797C171.093 41.0909 169.786 42.5579 168.19 43.6563C166.924 44.5514 165.909 45.7573 165.244 47.1579C164.579 48.5585 164.285 50.1067 164.391 51.6536C164.497 53.2005 165 54.6941 165.85 55.9908C166.7 57.2874 167.87 58.3434 169.246 59.0573C170.623 59.7712 172.16 60.1189 173.71 60.0669C175.259 60.015 176.77 59.5652 178.095 58.7608C179.421 57.9564 180.517 56.8245 181.279 55.4738C182.04 54.1232 182.441 52.5993 182.444 51.0487C182.44 50.5213 182.389 49.9953 182.291 49.4771L190.018 49.4771L190.018 27.0742Z" fill="#4E84F6"/>
<path d="M189.996 39.2978C196.747 39.2978 202.22 33.825 202.22 27.074C202.22 20.3231 196.747 14.8503 189.996 14.8503C183.245 14.8503 177.772 20.3231 177.772 27.0741C177.772 33.8251 183.245 39.2978 189.996 39.2978Z" fill="#CFCCCA"/>
<path d="M185.318 46.0864L194.682 46.0864C197.839 46.0864 200.867 47.3405 203.099 49.5729C205.332 51.8052 206.586 54.8329 206.586 57.99L206.586 65.4843L173.407 65.4843L173.407 57.99C173.407 56.4262 173.715 54.8777 174.314 53.433C174.913 51.9883 175.79 50.6758 176.896 49.5703C178.002 48.4649 179.316 47.5882 180.761 46.9904C182.206 46.3927 183.754 46.0855 185.318 46.0864V46.0864Z" fill="#B98D6C"/>
<path d="M172.287 44.7183L208.208 44.7182L208.208 60.0779L172.287 60.078L172.287 44.7183Z" fill="#003B70"/>
<path fill-rule="evenodd" clip-rule="evenodd" d="M181.287 43.0012C181.287 45.3458 182.218 47.5944 183.876 49.2523C185.534 50.9102 187.783 51.8416 190.127 51.8416C192.472 51.8416 194.721 50.9102 196.378 49.2523C198.036 47.5944 198.968 45.3458 198.968 43.0012L203.333 43.0012C203.333 46.5036 201.942 49.8626 199.465 52.3392C196.989 54.8159 193.63 56.2072 190.127 56.2072C186.625 56.2072 183.266 54.8159 180.789 52.3393C178.313 49.8627 176.921 46.5037 176.921 43.0012L181.287 43.0012Z" fill="#FF4671"/>
<path fill-rule="evenodd" clip-rule="evenodd" d="M187.814 46.0863L187.814 37.2605L192.18 37.2605L192.18 46.0863L187.814 46.0863Z" fill="#CFCCCA"/>
<path d="M195.563 30.3992C195.59 31.1466 195.466 31.8918 195.199 32.5902C194.931 33.2887 194.526 33.9261 194.007 34.4645C193.487 35.0028 192.865 35.4309 192.177 35.7234C191.488 36.0158 190.748 36.1665 190 36.1665C189.252 36.1665 188.512 36.0158 187.824 35.7234C187.135 35.4309 186.513 35.0028 185.994 34.4645C185.475 33.9261 185.069 33.2887 184.802 32.5902C184.535 31.8918 184.411 31.1466 184.438 30.3992L195.563 30.3992Z" fill="white"/>
<path d="M201.849 19.3178C201.791 19.3178 192.543 12.6748 192.543 12.6748L190.018 14.3701L187.479 12.6748C187.479 12.6748 178.231 19.3469 178.166 19.3178C178.1 19.2887 176.776 27.0741 176.776 27.0741L178.522 27.0741C180.363 27.0759 182.18 26.6605 183.838 25.859C185.495 25.0574 186.949 23.8907 188.09 22.4465C188.321 22.1556 188.615 21.9206 188.949 21.759C189.284 21.5975 189.65 21.5136 190.022 21.5136C190.393 21.5136 190.76 21.5975 191.095 21.759C191.429 21.9206 191.723 22.1556 191.954 22.4465C193.093 23.8914 194.545 25.0587 196.202 25.8603C197.858 26.6619 199.674 27.0769 201.514 27.074L203.268 27.074C203.268 27.074 201.915 19.2887 201.849 19.3178V19.3178Z" fill="#4E84F6"/>
</g>
<g clip-path="url(#clip1_14_2278)">
<path d="M296.063 123.927C318.152 123.927 336.059 106.02 336.059 83.9302C336.059 61.8408 318.152 43.9338 296.063 43.9338C273.973 43.9338 256.066 61.8408 256.066 83.9302C256.066 106.02 273.973 123.927 296.063 123.927Z" fill="#6FD9E0"/>
<path fill-rule="evenodd" clip-rule="evenodd" d="M298.246 67.1079V105.329H293.88V67.1079H298.246Z" fill="#CBFFE2"/>
<path fill-rule="evenodd" clip-rule="evenodd" d="M283.912 101.975H308.214V106.34H283.912V101.975Z" fill="#003B70"/>
<path d="M283.555 84.054L278.848 75.8539L274.191 83.9521C273.602 84.978 271.281 84.9198 271.281 84.9198L270.371 81.8857L276.92 70.455C277.106 70.1067 277.383 69.8155 277.722 69.6125C278.061 69.4095 278.449 69.3022 278.844 69.3022C279.239 69.3022 279.627 69.4095 279.966 69.6125C280.305 69.8155 280.582 70.1067 280.769 70.455L287.317 81.8857L286.517 84.8689C286.517 84.8689 283.963 84.7597 283.555 84.054Z" fill="#CBFFE2"/>
<path d="M287.353 81.8784C287.289 84.0883 286.365 86.1861 284.779 87.7263C283.193 89.2666 281.069 90.1282 278.859 90.1282C276.648 90.1282 274.524 89.2666 272.938 87.7263C271.352 86.1861 270.428 84.0883 270.364 81.8784H287.353Z" fill="#4E84F6"/>
<path d="M318 84.0539L313.285 75.8538L308.636 83.952C308.046 84.9779 305.725 84.9197 305.725 84.9197L304.816 81.8783L311.364 70.4477C311.558 70.1074 311.839 69.8244 312.177 69.6276C312.516 69.4308 312.901 69.3271 313.292 69.3271C313.684 69.3271 314.069 69.4308 314.408 69.6276C314.746 69.8244 315.027 70.1074 315.221 70.4477L321.769 81.8783L320.961 84.8615C320.961 84.8615 318.4 84.7596 318 84.0539Z" fill="#CBFFE2"/>
<path d="M321.783 81.8784C321.783 84.1323 320.888 86.2939 319.294 87.8877C317.701 89.4815 315.539 90.3768 313.285 90.3768C311.031 90.3768 308.87 89.4815 307.276 87.8877C305.682 86.2939 304.787 84.1323 304.787 81.8784H321.783Z" fill="#4E84F6"/>
<path d="M319.513 72.3103C319.327 72.3107 319.141 72.2863 318.961 72.2376C303.941 68.3667 288.185 68.3667 273.165 72.2376C272.886 72.3092 272.595 72.3252 272.309 72.2844C272.024 72.2437 271.749 72.1471 271.5 72.0001C271.252 71.8532 271.035 71.6587 270.862 71.4279C270.689 71.1972 270.563 70.9345 270.491 70.655C270.42 70.3756 270.404 70.0847 270.444 69.7991C270.485 69.5134 270.582 69.2386 270.729 68.9903C270.876 68.742 271.07 68.5251 271.301 68.3519C271.532 68.1788 271.794 68.0528 272.074 67.9811C287.824 63.9233 304.345 63.9233 320.096 67.9811C320.67 68.0583 321.19 68.3604 321.541 68.8209C321.892 69.2814 322.046 69.8627 321.969 70.4368C321.892 71.0109 321.59 71.5308 321.129 71.8821C320.669 72.2335 320.088 72.3875 319.513 72.3103Z" fill="#003B70"/>
<path d="M296.11 67.1513C297.324 67.1341 298.294 66.143 298.277 64.9376C298.26 63.7322 297.262 62.7689 296.049 62.7861C294.835 62.8032 293.865 63.7943 293.882 64.9997C293.899 66.2051 294.897 67.1684 296.11 67.1513Z" fill="#003B70"/>
</g>
<path d="M339.996 229.993C362.086 229.993 379.993 212.086 379.993 189.996C379.993 167.907 362.086 150 339.996 150C317.907 150 300 167.907 300 189.996C300 212.086 317.907 229.993 339.996 229.993Z" fill="#ABD24B"/>
<path fill-rule="evenodd" clip-rule="evenodd" d="M337.813 216.765V202.14H342.179V216.765H337.813Z" fill="#B98D6C"/>
<path d="M357.99 184.561C356.144 183.493 354.067 182.887 351.937 182.793C352.993 180.745 353.505 178.46 353.423 176.158C353.342 173.856 352.669 171.613 351.47 169.645C350.272 167.678 348.587 166.052 346.578 164.923C344.569 163.795 342.304 163.202 340 163.202C337.696 163.202 335.431 163.795 333.422 164.923C331.414 166.052 329.729 167.678 328.53 169.645C327.331 171.613 326.659 173.856 326.577 176.158C326.495 178.46 327.007 180.745 328.064 182.793C325.933 182.887 323.857 183.493 322.01 184.561C320.255 185.579 318.753 186.982 317.619 188.664C316.484 190.347 315.745 192.264 315.458 194.273C315.171 196.282 315.343 198.33 315.961 200.262C316.579 202.195 317.628 203.963 319.027 205.432C320.427 206.901 322.142 208.034 324.042 208.745C325.943 209.456 327.98 209.727 330 209.538C332.02 209.349 333.972 208.704 335.707 207.652C337.442 206.599 338.916 205.168 340.018 203.464C341.122 205.167 342.597 206.597 344.333 207.648C346.069 208.698 348.021 209.341 350.041 209.529C352.062 209.717 354.099 209.444 355.998 208.731C357.898 208.019 359.612 206.885 361.01 205.414C362.409 203.944 363.456 202.176 364.073 200.243C364.689 198.31 364.86 196.262 364.571 194.253C364.283 192.245 363.542 190.328 362.406 188.647C361.27 186.965 359.768 185.563 358.012 184.546L357.99 184.561Z" fill="#00AD6C"/>
<mask id="mask0_14_2278" style="mask-type:alpha" maskUnits="userSpaceOnUse" x="315" y="163" width="50" height="47">
<path d="M357.947 184.455C356.101 183.388 354.024 182.781 351.894 182.687C352.95 180.64 353.462 178.355 353.38 176.053C353.299 173.75 352.626 171.507 351.427 169.54C350.229 167.572 348.544 165.946 346.535 164.818C344.526 163.69 342.261 163.097 339.957 163.097C337.653 163.097 335.388 163.69 333.379 164.818C331.371 165.946 329.686 167.572 328.487 169.54C327.288 171.507 326.616 173.75 326.534 176.053C326.452 178.355 326.964 180.64 328.021 182.687C325.89 182.781 323.814 183.388 321.967 184.455C320.212 185.474 318.711 186.877 317.576 188.559C316.441 190.241 315.702 192.159 315.415 194.168C315.128 196.176 315.3 198.224 315.918 200.157C316.536 202.09 317.585 203.857 318.984 205.326C320.384 206.796 322.099 207.928 323.999 208.64C325.9 209.351 327.937 209.622 329.957 209.432C331.977 209.243 333.929 208.598 335.664 207.546C337.399 206.494 338.873 205.062 339.975 203.358C341.079 205.061 342.554 206.492 344.29 207.542C346.026 208.593 347.978 209.236 349.998 209.424C352.019 209.611 354.056 209.339 355.955 208.626C357.855 207.913 359.569 206.779 360.967 205.309C362.366 203.839 363.413 202.07 364.03 200.137C364.646 198.204 364.817 196.156 364.528 194.148C364.24 192.139 363.499 190.222 362.363 188.541C361.227 186.86 359.725 185.458 357.969 184.441L357.947 184.455Z" fill="#00AD6C"/>
</mask>
<g mask="url(#mask0_14_2278)">
<path fill-rule="evenodd" clip-rule="evenodd" d="M349.967 189.232L349.972 189.232L366.496 189.232V193.598H349.974C347.911 193.603 345.935 194.426 344.477 195.886C343.02 197.347 342.201 199.327 342.201 201.391L337.835 201.391C337.835 198.171 339.113 195.082 341.387 192.803C343.661 190.524 346.747 189.239 349.967 189.232Z" fill="#007670"/>
<path fill-rule="evenodd" clip-rule="evenodd" d="M313.497 189.232H330.05C331.646 189.232 333.227 189.547 334.702 190.158C336.177 190.769 337.517 191.665 338.645 192.794C339.774 193.924 340.669 195.264 341.279 196.74C341.889 198.215 342.202 199.796 342.201 201.392L337.835 201.389C337.836 200.366 337.635 199.353 337.244 198.408C336.853 197.463 336.28 196.604 335.557 195.88C334.834 195.157 333.976 194.583 333.031 194.191C332.086 193.8 331.073 193.598 330.05 193.598H313.497V189.232Z" fill="#007670"/>
<path fill-rule="evenodd" clip-rule="evenodd" d="M323.027 165.527C325.544 165.525 328.037 166.019 330.363 166.981C332.689 167.942 334.803 169.353 336.584 171.132C337.962 172.509 339.12 174.086 340.02 175.807C340.91 174.105 342.058 172.533 343.44 171.149C347.027 167.558 351.892 165.536 356.968 165.527L356.975 169.893C353.056 169.899 349.299 171.461 346.529 174.234C343.759 177.007 342.203 180.766 342.201 184.685C342.201 184.685 342.201 184.686 342.201 184.686V207.801H337.835V184.685C337.835 184.685 337.835 184.684 337.835 184.684C337.835 182.741 337.452 180.816 336.708 179.021C335.964 177.226 334.873 175.595 333.498 174.221C332.124 172.847 330.491 171.758 328.695 171.015C326.899 170.272 324.974 169.891 323.031 169.893L323.027 165.527Z" fill="#007670"/>
</g>
<path d="M296.063 336.058C318.152 336.058 336.059 318.151 336.059 296.062C336.059 273.973 318.152 256.066 296.063 256.066C273.973 256.066 256.066 273.973 256.066 296.062C256.066 318.151 273.973 336.058 296.063 336.058Z" fill="#F3B26E"/>
<path fill-rule="evenodd" clip-rule="evenodd" d="M321.151 288.625C322.356 288.625 323.333 289.602 323.333 290.808L323.333 298.075C323.337 298.537 323.249 298.994 323.076 299.422C322.901 299.855 322.642 300.249 322.313 300.58C321.985 300.912 321.594 301.175 321.164 301.355C320.733 301.535 320.271 301.627 319.805 301.627C319.805 301.627 319.804 301.627 319.804 301.627L309.363 301.627C308.158 301.627 307.181 300.65 307.181 299.444C307.181 298.239 308.158 297.262 309.363 297.262L318.968 297.262L318.968 290.808C318.968 289.602 319.945 288.625 321.151 288.625Z" fill="#00AD6C"/>
<path d="M317.782 292.918C318.441 292.918 318.975 292.384 318.975 291.725C318.975 291.065 318.441 290.531 317.782 290.531C317.123 290.531 316.588 291.065 316.588 291.725C316.588 292.384 317.123 292.918 317.782 292.918Z" fill="#007670"/>
<path d="M324.534 292.918C325.193 292.918 325.727 292.384 325.727 291.725C325.727 291.065 325.193 290.531 324.534 290.531C323.875 290.531 323.341 291.065 323.341 291.725C323.341 292.384 323.875 292.918 324.534 292.918Z" fill="#007670"/>
<path d="M272.561 292.991C272.561 287.527 274.731 282.288 278.594 278.425C282.457 274.562 287.696 272.392 293.159 272.392C298.623 272.392 303.862 274.562 307.725 278.425C311.588 282.288 313.758 287.527 313.758 292.991L313.758 301.627L272.561 301.627L272.561 292.991Z" fill="#B98D6C"/>
<mask id="mask1_14_2278" style="mask-type:alpha" maskUnits="userSpaceOnUse" x="272" y="272" width="42" height="30">
<path d="M272.561 292.991C272.561 287.527 274.731 282.288 278.594 278.425C282.457 274.562 287.696 272.392 293.159 272.392C298.623 272.392 303.862 274.562 307.725 278.425C311.588 282.288 313.758 287.527 313.758 292.991L313.758 301.627L272.561 301.627L272.561 292.991Z" fill="#B98D6C"/>
</mask>
<g mask="url(#mask1_14_2278)">
<path fill-rule="evenodd" clip-rule="evenodd" d="M296.594 297.524C294.327 297.524 292.49 299.361 292.49 301.627C292.49 303.894 294.327 305.731 296.594 305.731C298.86 305.731 300.697 303.894 300.697 301.627C300.697 299.361 298.86 297.524 296.594 297.524ZM288.125 301.627C288.125 296.95 291.916 293.158 296.594 293.158C301.271 293.158 305.063 296.95 305.063 301.627C305.063 306.305 301.271 310.097 296.594 310.097C291.916 310.097 288.125 306.305 288.125 301.627Z" fill="#007670"/>
<path fill-rule="evenodd" clip-rule="evenodd" d="M303.979 266.266C298.397 266.266 293.872 270.791 293.872 276.372C293.872 281.954 298.397 286.479 303.979 286.479C309.56 286.479 314.085 281.954 314.085 276.372C314.085 270.791 309.56 266.266 303.979 266.266ZM289.507 276.372C289.507 268.379 295.986 261.9 303.979 261.9C311.972 261.9 318.451 268.379 318.451 276.372C318.451 284.365 311.972 290.844 303.979 290.844C295.986 290.844 289.507 284.365 289.507 276.372Z" fill="#007670"/>
<path fill-rule="evenodd" clip-rule="evenodd" d="M274.737 279.472C271.281 279.472 268.479 282.273 268.479 285.729C268.479 289.185 271.281 291.986 274.737 291.986C278.193 291.986 280.994 289.185 280.994 285.729C280.994 282.273 278.193 279.472 274.737 279.472ZM264.114 285.729C264.114 279.862 268.87 275.106 274.737 275.106C280.604 275.106 285.36 279.862 285.36 285.729C285.36 291.596 280.604 296.352 274.737 296.352C268.87 296.352 264.114 291.596 264.114 285.729Z" fill="#007670"/>
</g>
<path fill-rule="evenodd" clip-rule="evenodd" d="M313.758 301.627L313.758 315.859L309.393 315.859L309.393 301.627L313.758 301.627Z" fill="#00AD6C"/>
<path fill-rule="evenodd" clip-rule="evenodd" d="M305.063 301.627L305.063 315.859L300.697 315.859L300.697 301.627L305.063 301.627Z" fill="#00AD6C"/>
<path fill-rule="evenodd" clip-rule="evenodd" d="M276.927 301.627L276.927 315.859L272.561 315.859L272.561 301.627L276.927 301.627Z" fill="#00AD6C"/>
<path fill-rule="evenodd" clip-rule="evenodd" d="M285.622 301.627L285.622 315.859L281.256 315.859L281.256 301.627L285.622 301.627Z" fill="#00AD6C"/>
<path d="M189.996 379.993C212.086 379.993 229.993 362.086 229.993 339.996C229.993 317.907 212.086 300 189.996 300C167.907 300 150 317.907 150 339.996C150 362.086 167.907 379.993 189.996 379.993Z" fill="#F07752"/>
<path d="M203.719 345.453L195.584 313.191C195.46 312.704 195.179 312.272 194.784 311.96C194.39 311.649 193.904 311.475 193.401 311.467C192.797 311.467 192.217 311.707 191.788 312.134C191.36 312.561 191.119 313.14 191.117 313.744V345.41L203.719 345.453Z" fill="white"/>
<path d="M195.453 361.621H214.233L208.208 348.349C207.817 347.484 207.185 346.749 206.388 346.233C205.59 345.717 204.661 345.441 203.711 345.439H195.453V361.621Z" fill="#007670"/>
<path d="M191.088 345.453C191.088 347.128 191.753 348.735 192.938 349.919C194.122 351.104 195.728 351.769 197.403 351.769C199.078 351.769 200.685 351.104 201.869 349.919C203.054 348.735 203.719 347.128 203.719 345.453H191.088Z" fill="#CFCCCA"/>
<path fill-rule="evenodd" clip-rule="evenodd" d="M193.271 331.469C194.476 331.469 195.454 332.446 195.454 333.652V345.41C195.454 346.615 194.476 347.592 193.271 347.592C192.065 347.592 191.088 346.615 191.088 345.41V333.652C191.088 332.446 192.065 331.469 193.271 331.469Z" fill="#CFCCCA"/>
<path d="M197.403 351.769C198.232 351.769 199.054 351.606 199.82 351.288C200.586 350.971 201.282 350.506 201.869 349.919C202.455 349.333 202.921 348.636 203.238 347.87C203.555 347.104 203.719 346.283 203.719 345.453H195.453V351.456C196.082 351.664 196.741 351.769 197.403 351.769V351.769Z" fill="#231F20"/>
<path d="M176.274 345.453L184.416 313.191C184.539 312.704 184.82 312.271 185.215 311.959C185.609 311.647 186.096 311.474 186.599 311.467C187.203 311.467 187.782 311.707 188.209 312.134C188.636 312.561 188.876 313.14 188.876 313.744V345.41L176.274 345.453Z" fill="white"/>
<path d="M184.539 361.621H165.767L171.784 348.349C172.173 347.484 172.804 346.749 173.6 346.232C174.396 345.716 175.325 345.441 176.274 345.439H184.539V361.621Z" fill="#007670"/>
<path d="M188.905 345.453C188.905 347.128 188.24 348.735 187.055 349.919C185.871 351.104 184.265 351.769 182.59 351.769C180.915 351.769 179.308 351.104 178.124 349.919C176.939 348.735 176.274 347.128 176.274 345.453H188.905Z" fill="#CFCCCA"/>
<path fill-rule="evenodd" clip-rule="evenodd" d="M186.722 331.469C187.928 331.469 188.905 332.446 188.905 333.652V345.41C188.905 346.615 187.928 347.592 186.722 347.592C185.517 347.592 184.54 346.615 184.54 345.41V333.652C184.54 332.446 185.517 331.469 186.722 331.469Z" fill="#CFCCCA"/>
<path d="M182.59 351.769C181.76 351.769 180.939 351.606 180.173 351.288C179.406 350.971 178.71 350.506 178.124 349.919C177.537 349.333 177.072 348.636 176.755 347.87C176.437 347.104 176.274 346.283 176.274 345.453H184.54V351.456C183.911 351.665 183.252 351.77 182.59 351.769Z" fill="#231F20"/>
<g clip-path="url(#clip2_14_2278)">
<path d="M83.9309 336.058C106.02 336.058 123.927 318.151 123.927 296.062C123.927 273.973 106.02 256.066 83.9309 256.066C61.8416 256.066 43.9346 273.973 43.9346 296.062C43.9346 318.151 61.8416 336.058 83.9309 336.058Z" fill="#EFAED3"/>
<path d="M62.8522 295.065C57.7589 288.036 62.2846 277.894 70.9358 277.421H71.6634C73.6387 277.416 75.5872 277.878 77.35 278.769C79.1127 279.661 80.6396 280.956 81.8062 282.55C82.0497 282.887 82.3696 283.161 82.7395 283.35C83.1095 283.539 83.519 283.638 83.9345 283.638C84.3499 283.638 84.7594 283.539 85.1294 283.35C85.4994 283.161 85.8192 282.887 86.0627 282.55C87.2247 280.953 88.7481 279.654 90.5085 278.759C92.2688 277.864 94.216 277.398 96.1909 277.399H96.9185C105.577 277.894 110.088 288.036 105.053 295.065L88.9367 317.461C88.3651 318.254 87.6131 318.9 86.7428 319.346C85.8724 319.791 84.9086 320.024 83.9308 320.024C82.953 320.024 81.9892 319.791 81.1189 319.346C80.2485 318.9 79.4965 318.254 78.9249 317.461L62.8522 295.065Z" fill="#FF6145"/>
<path fill-rule="evenodd" clip-rule="evenodd" d="M91.4329 299.995C90.0849 301.953 88.0146 304.961 83.9236 304.961C79.8374 304.961 77.7772 301.965 76.4347 300.013C76.3869 299.944 76.34 299.876 76.2939 299.809C74.7288 297.543 73.8801 296.542 72.2456 296.542C70.6082 296.542 69.7526 297.547 68.1823 299.812C68.1353 299.88 68.0873 299.95 68.0384 300.02C66.6927 301.97 64.6282 304.961 60.553 304.961C58.735 304.961 57.3083 304.544 56.122 303.827C55.0332 303.169 54.2532 302.31 53.6876 301.687C53.6691 301.667 53.6508 301.647 53.6327 301.627C53.01 300.942 52.6147 300.526 52.1163 300.224C51.6808 299.96 51.0553 299.722 49.9591 299.722H43.9346V295.356H49.9591C51.7733 295.356 53.1969 295.773 54.3806 296.491C55.4625 297.148 56.2398 298.004 56.8032 298.624C56.8235 298.647 56.8434 298.669 56.8631 298.69C57.4839 299.373 57.8806 299.789 58.3808 300.091C58.8191 300.356 59.4497 300.595 60.553 300.595C62.1723 300.595 63.0189 299.598 64.5944 297.325C64.6387 297.261 64.6838 297.196 64.7297 297.129C66.0802 295.174 68.1504 292.177 72.2456 292.177C76.3418 292.177 78.4048 295.175 79.7498 297.13C79.7961 297.197 79.8415 297.264 79.8862 297.328C81.4539 299.598 82.2981 300.595 83.9236 300.595C85.5501 300.595 86.4054 299.591 87.9768 297.317C88.0247 297.248 88.0734 297.177 88.1232 297.104C89.4651 295.154 91.5283 292.155 95.5944 292.155V296.52C93.9904 296.52 93.1464 297.515 91.5685 299.799C91.5241 299.863 91.4789 299.928 91.4329 299.995Z" fill="#FF4671"/>
<mask id="mask2_14_2278" style="mask-type:alpha" maskUnits="userSpaceOnUse" x="60" y="277" width="48" height="43">
<path d="M62.8077 294.832C57.7145 287.804 62.2402 277.661 70.8914 277.188H71.619C73.5943 277.183 75.5428 277.645 77.3055 278.537C79.0682 279.428 80.5952 280.724 81.7618 282.318C82.0053 282.654 82.3251 282.928 82.6951 283.117C83.0651 283.306 83.4746 283.405 83.89 283.405C84.3055 283.405 84.715 283.306 85.085 283.117C85.4549 282.928 85.7748 282.654 86.0183 282.318C87.1803 280.721 88.7037 279.422 90.464 278.526C92.2243 277.631 94.1716 277.165 96.1465 277.166H96.8741C105.533 277.661 110.044 287.804 105.009 294.832L88.8923 317.228C88.3207 318.021 87.5687 318.668 86.6983 319.113C85.828 319.559 84.8642 319.791 83.8864 319.791C82.9086 319.791 81.9448 319.559 81.0744 319.113C80.2041 318.668 79.4521 318.021 78.8805 317.228L62.8077 294.832Z" fill="#FF6145"/>
</mask>
<g mask="url(#mask2_14_2278)">
<path fill-rule="evenodd" clip-rule="evenodd" d="M44.6551 300.004C43.3101 301.95 41.2449 304.939 37.1826 304.939V300.573C38.7901 300.573 39.6356 299.579 41.2157 297.302C41.2596 297.239 41.3042 297.174 41.3497 297.109C42.702 295.153 44.7756 292.155 48.8679 292.155C52.9583 292.155 55.0218 295.151 56.3672 297.104C56.4143 297.173 56.4606 297.24 56.506 297.305C58.0743 299.574 58.9224 300.573 60.5532 300.573C62.1842 300.573 63.0321 299.574 64.6017 297.305C64.6468 297.24 64.6927 297.173 64.7394 297.105C66.0865 295.151 68.1516 292.155 72.2458 292.155C76.342 292.155 78.4051 295.154 79.75 297.108C79.7963 297.176 79.8418 297.242 79.8864 297.306C81.4541 299.577 82.2983 300.573 83.9239 300.573C85.5529 300.573 86.4083 299.571 87.9786 297.304C88.0262 297.235 88.0748 297.164 88.1244 297.093C89.4672 295.146 91.5304 292.155 95.5946 292.155C99.6569 292.155 101.722 295.143 103.067 297.09C103.117 297.162 103.166 297.233 103.214 297.302C104.786 299.568 105.645 300.573 107.28 300.573C108.911 300.573 109.759 299.574 111.328 297.305C111.373 297.24 111.419 297.173 111.466 297.105C112.813 295.151 114.878 292.155 118.973 292.155C123.068 292.155 125.131 295.152 126.476 297.107C126.523 297.174 126.569 297.241 126.614 297.306C128.181 299.575 129.028 300.573 130.658 300.573V304.939C126.568 304.939 124.506 301.943 123.162 299.99C123.114 299.921 123.068 299.854 123.022 299.788C121.456 297.521 120.607 296.52 118.973 296.52C117.337 296.52 116.487 297.522 114.919 299.789C114.873 299.855 114.826 299.922 114.779 299.991C113.433 301.944 111.369 304.939 107.28 304.939C103.188 304.939 101.114 301.94 99.7617 299.985C99.7162 299.919 99.6716 299.855 99.6277 299.791C98.0476 297.515 97.2021 296.52 95.5946 296.52C93.9881 296.52 93.144 297.514 91.5672 299.79C91.523 299.854 91.478 299.919 91.4321 299.985C90.0833 301.939 88.0131 304.939 83.9239 304.939C79.8377 304.939 77.7774 301.943 76.4349 299.992C76.3871 299.922 76.3402 299.854 76.2942 299.787C74.7291 297.521 73.8804 296.52 72.2458 296.52C70.6103 296.52 69.7602 297.522 68.1919 299.789C68.1461 299.855 68.0995 299.922 68.0521 299.991C66.7062 301.944 64.6425 304.939 60.5532 304.939C56.4629 304.939 54.3993 301.943 53.054 299.989C53.0068 299.921 52.9606 299.854 52.9152 299.788C51.3468 297.52 50.4988 296.52 48.8679 296.52C47.2334 296.52 46.3744 297.526 44.8021 299.791C44.7541 299.861 44.7051 299.932 44.6551 300.004Z" fill="#6F005D"/>
</g>
</g>
<path d="M39.9964 229.993C62.0857 229.993 79.9927 212.086 79.9927 189.996C79.9927 167.907 62.0857 150 39.9964 150C17.907 150 0 167.907 0 189.996C0 212.086 17.907 229.993 39.9964 229.993Z" fill="#B9CDE5"/>
<path d="M28.9438 162.508H32.822C34.7517 162.508 36.6024 163.274 37.9669 164.639C39.3314 166.003 40.098 167.854 40.098 169.784V173.662H36.2563C34.3265 173.662 32.4759 172.895 31.1113 171.531C29.7468 170.166 28.9802 168.315 28.9802 166.386V162.508H28.9438V162.508Z" fill="#007670"/>
<path d="M54.7083 167.717C50.8489 167.717 47.1475 169.25 44.4185 171.979C41.6894 174.708 40.1562 178.41 40.1562 182.269V183.863" stroke="#B98D6C" stroke-width="4.36562" stroke-miterlimit="10"/>
<path d="M61.1185 193.067C61.396 192.62 61.6393 192.153 61.8461 191.67V191.59C62.5504 189.844 62.8225 187.955 62.6392 186.082C62.4028 183.705 61.4475 181.457 59.9006 179.638C58.3538 177.818 56.2889 176.513 53.9814 175.898C51.6739 175.282 49.2335 175.384 46.9857 176.191C44.7379 176.998 42.7895 178.471 41.4005 180.414C41.2556 180.615 41.0649 180.779 40.8441 180.892C40.6233 181.005 40.3788 181.064 40.1308 181.064C39.8827 181.064 39.6383 181.005 39.4175 180.892C39.1967 180.779 39.006 180.615 38.8611 180.414C37.7823 178.89 36.3552 177.646 34.6985 176.786C33.0419 175.925 31.2036 175.473 29.3368 175.466C26.4189 175.482 23.6095 176.574 21.4467 178.533C19.2839 180.492 17.9196 183.18 17.6151 186.082C17.4318 187.955 17.7039 189.844 18.4082 191.59V191.67C18.6033 192.152 18.8344 192.619 19.0994 193.067L28.9657 213.04C29.0577 213.262 29.1647 213.479 29.2859 213.687C29.8463 214.667 30.6696 215.471 31.6627 216.008C32.6559 216.544 33.7794 216.793 34.9063 216.725C36.0332 216.657 37.1185 216.275 38.0398 215.622C38.9611 214.97 39.6816 214.073 40.1199 213.032C40.5569 214.073 41.2765 214.97 42.1972 215.623C43.1179 216.276 44.203 216.658 45.3296 216.726C46.4563 216.795 47.5795 216.546 48.5722 216.009C49.5648 215.472 50.3874 214.667 50.9466 213.687C51.0654 213.479 51.17 213.262 51.2595 213.04L61.1185 193.067Z" fill="#FF7053"/>
<mask id="mask3_14_2278" style="mask-type:alpha" maskUnits="userSpaceOnUse" x="17" y="175" width="46" height="42">
<path d="M61.0213 193.067C61.2989 192.62 61.5421 192.153 61.749 191.67V191.59C62.4533 189.844 62.7254 187.955 62.542 186.082C62.3057 183.705 61.3503 181.457 59.8035 179.638C58.2566 177.818 56.1917 176.513 53.8842 175.898C51.5767 175.282 49.1363 175.384 46.8885 176.191C44.6407 176.998 42.6924 178.471 41.3033 180.414C41.1584 180.615 40.9677 180.779 40.7469 180.892C40.5262 181.005 40.2817 181.064 40.0336 181.064C39.7856 181.064 39.5411 181.005 39.3203 180.892C39.0996 180.779 38.9089 180.615 38.764 180.414C37.6851 178.89 36.258 177.646 34.6013 176.786C32.9447 175.925 31.1065 175.473 29.2396 175.466C26.3217 175.482 23.5123 176.574 21.3495 178.533C19.1867 180.492 17.8224 183.18 17.5179 186.082C17.3346 187.955 17.6067 189.844 18.311 191.59V191.67C18.5061 192.152 18.7372 192.619 19.0023 193.067L28.8686 213.04C28.9606 213.262 29.0675 213.479 29.1887 213.687C29.7491 214.667 30.5724 215.471 31.5656 216.008C32.5587 216.544 33.6822 216.793 34.8091 216.725C35.936 216.657 37.0214 216.275 37.9427 215.622C38.864 214.97 39.5844 214.073 40.0227 213.032C40.4597 214.073 41.1793 214.97 42.1 215.623C43.0207 216.276 44.1058 216.658 45.2324 216.726C46.3591 216.795 47.4823 216.546 48.475 216.009C49.4677 215.472 50.2902 214.667 50.8495 213.687C50.9683 213.479 51.0728 213.262 51.1623 213.04L61.0213 193.067Z" fill="#FF7053"/>
</mask>
<g mask="url(#mask3_14_2278)">
<path d="M69.2824 182.291C69.2797 185.657 68.1105 188.917 65.9738 191.518C63.8372 194.118 60.8651 195.898 57.5639 196.553C54.2627 197.209 50.8363 196.699 47.8683 195.112C44.9003 193.525 42.5742 190.958 41.2861 187.849C39.998 184.74 39.8276 181.28 40.8038 178.059C41.78 174.838 43.8426 172.055 46.6402 170.184C49.4378 168.313 52.7975 167.469 56.1472 167.797C59.4969 168.124 62.6294 169.603 65.0113 171.981C66.3689 173.332 67.4453 174.939 68.1784 176.709C68.9114 178.478 69.2867 180.376 69.2824 182.291V182.291Z" stroke="#C14639" stroke-width="4.36562" stroke-miterlimit="10"/>
<path d="M24.1927 212.152C29.7462 212.152 34.2482 207.65 34.2482 202.096C34.2482 196.543 29.7462 192.041 24.1927 192.041C18.6392 192.041 14.1372 196.543 14.1372 202.096C14.1372 207.65 18.6392 212.152 24.1927 212.152Z" stroke="#C14639" stroke-width="4.36562" stroke-miterlimit="10"/>
</g>
<path d="M83.9309 123.927C106.02 123.927 123.927 106.02 123.927 83.9302C123.927 61.8408 106.02 43.9338 83.9309 43.9338C61.8416 43.9338 43.9346 61.8408 43.9346 83.9302C43.9346 106.02 61.8416 123.927 83.9309 123.927Z" fill="#55C987"/>
<path fill-rule="evenodd" clip-rule="evenodd" d="M71.2778 85.793V57.0381H75.6435V85.793H71.2778Z" fill="#FFFF89"/>
<path d="M73.461 60.8289C75.0047 60.8289 76.4853 61.4421 77.5769 62.5337C78.6685 63.6254 79.2818 65.1059 79.2818 66.6497V82.0094H67.6401V66.6497C67.6401 65.1059 68.2534 63.6254 69.345 62.5337C70.4366 61.4421 71.9172 60.8289 73.461 60.8289Z" fill="#4E84F6"/>
<path fill-rule="evenodd" clip-rule="evenodd" d="M71.2778 85.793V57.0381H75.6435V85.793H71.2778Z" fill="#003B70"/>
<path fill-rule="evenodd" clip-rule="evenodd" d="M85.1011 64.4668C87.3957 64.4655 89.6682 64.9166 91.7884 65.794C93.9087 66.6715 95.8352 67.9583 97.4579 69.5808L94.3711 72.6679C93.1541 71.4511 91.7092 70.486 90.119 69.8279C88.5288 69.1697 86.8245 68.8315 85.1035 68.8324L85.1011 64.4668Z" fill="#FFFF89"/>
<path fill-rule="evenodd" clip-rule="evenodd" d="M97.9561 79.3755C97.4509 76.8342 96.2033 74.4999 94.3711 72.6679L97.4579 69.5808C99.9008 72.0235 101.564 75.1359 102.238 78.5242C102.912 81.9125 102.565 85.4245 101.242 88.6159C99.9194 91.8072 97.6797 94.5345 94.8065 96.4527C91.9333 98.3708 88.5557 99.3937 85.1011 99.3918L85.1035 95.0261C87.6945 95.0276 90.2276 94.2604 92.3825 92.8218C94.5374 91.3832 96.2172 89.3378 97.2093 86.9442C98.2014 84.5507 98.4613 81.9167 97.9561 79.3755Z" fill="#FFFF89"/>
<path d="M71.9182 108.218C71.8769 106.46 72.1875 104.711 72.8317 103.075C73.4759 101.439 74.4407 99.9481 75.6693 98.6902C76.898 97.4323 78.3658 96.4327 79.9864 95.7503C81.6069 95.0679 83.3476 94.7163 85.106 94.7163C86.8644 94.7163 88.6051 95.0679 90.2256 95.7503C91.8462 96.4327 93.314 97.4323 94.5427 98.6902C95.7713 99.9481 96.7361 101.439 97.3803 103.075C98.0245 104.711 98.3351 106.46 98.2938 108.218" fill="#4E84F6"/>
<mask id="mask4_14_2278" style="mask-type:alpha" maskUnits="userSpaceOnUse" x="71" y="94" width="28" height="15">
<path d="M71.9216 108.215C71.8803 106.457 72.1909 104.708 72.8351 103.072C73.4793 101.436 74.4441 99.9451 75.6728 98.6872C76.9015 97.4294 78.3692 96.4298 79.9898 95.7474C81.6104 95.0649 83.351 94.7134 85.1094 94.7134C86.8678 94.7134 88.6085 95.0649 90.229 95.7474C91.8496 96.4298 93.3174 97.4294 94.5461 98.6872C95.7748 99.9451 96.7396 101.436 97.3838 103.072C98.0279 104.708 98.3385 106.457 98.2972 108.215" fill="#4E84F6"/>
</mask>
<g mask="url(#mask4_14_2278)">
<path fill-rule="evenodd" clip-rule="evenodd" d="M92.3784 71.0399C90.2246 69.6008 87.6924 68.8327 85.1021 68.8327V64.467C88.5559 64.467 91.9321 65.4912 94.8038 67.41C97.6754 69.3288 99.9137 72.0561 101.235 75.2469C102.557 78.4378 102.903 81.9489 102.229 85.3363C101.555 88.7237 99.8921 91.8352 97.45 94.2774C95.0078 96.7195 91.8963 98.3827 88.5089 99.0565C85.1215 99.7303 81.6104 99.3844 78.4195 98.0627C75.2287 96.7411 72.5014 94.5028 70.5826 91.6312C68.6638 88.7595 67.6396 85.3833 67.6396 81.9295H72.0053C72.0053 84.5198 72.7734 87.052 74.2125 89.2057C75.6516 91.3595 77.697 93.0382 80.0902 94.0294C82.4833 95.0207 85.1167 95.2801 87.6572 94.7747C90.1977 94.2694 92.5314 93.022 94.363 91.1904C96.1946 89.3588 97.442 87.0251 97.9473 84.4846C98.4527 81.9441 98.1933 79.3107 97.202 76.9176C96.2108 74.5244 94.5321 72.479 92.3784 71.0399Z" fill="#003B70"/>
</g>
<path d="M85.1026 72.4705C88.3173 72.4705 90.9234 69.8644 90.9234 66.6497C90.9234 63.4349 88.3173 60.8289 85.1026 60.8289C81.8878 60.8289 79.2817 63.4349 79.2817 66.6497C79.2817 69.8644 81.8878 72.4705 85.1026 72.4705Z" fill="#003B70"/>
<path fill-rule="evenodd" clip-rule="evenodd" d="M63.1943 91.7592C63.1943 90.5537 64.1716 89.5764 65.3771 89.5764H81.5518C82.7573 89.5764 83.7346 90.5537 83.7346 91.7592C83.7346 92.9648 82.7573 93.942 81.5518 93.942H65.3771C64.1716 93.942 63.1943 92.9648 63.1943 91.7592Z" fill="#FFFF89"/>
<defs>
<clipPath id="clip0_14_2278">
<rect width="80" height="80" fill="white" transform="translate(150)"/>
</clipPath>
<clipPath id="clip1_14_2278">
<rect width="80" height="80" fill="white" transform="translate(256.066 43.9338)"/>
</clipPath>
<clipPath id="clip2_14_2278">
<rect width="80" height="80" fill="white" transform="translate(43.9346 256.066)"/>
</clipPath>
</defs>
</svg>
